<svg width="314" height="368" viewBox="0 0 314 368" fill="none" xmlns="http://www.w3.org/2000/svg">
<path d="M156.986 366L17.0015 295.99V261.309L156.561 330.506L156.986 366Z" fill="#00183C" stroke="white" stroke-width="2.25" stroke-linejoin="round"/>
<path d="M296.546 260.495L156.774 194.019L17.0015 261.309L156.561 330.506L296.546 260.495Z" fill="#00183C" stroke="white" stroke-width="2.25" stroke-linejoin="round"/>
<path d="M296.546 260.495V296.183L156.986 365.999L156.561 330.505L296.546 260.495Z" fill="#00183C" stroke="white" stroke-width="2.25" stroke-linejoin="round"/>
<path d="M252.387 261.054L156.774 215.576L61.1555 261.612L156.628 308.948L252.387 261.054Z" fill="#060809" stroke="white" stroke-width="2.25" stroke-linejoin="round"/>
<g filter="url(#filter0_d_530_966)">
<path d="M303.997 275.506L296.716 272.051" stroke="#00C3FF" stroke-width="0.889528" stroke-linecap="round" stroke-linejoin="round"/>
</g>
<g filter="url(#filter1_d_530_966)">
<path d="M16.8376 273.484L9.93311 276.843" stroke="#00C3FF" stroke-width="0.889528" stroke-linecap="round" stroke-linejoin="round"/>
</g>
<g filter="url(#filter2_d_530_966)">
<path d="M9.93311 276.842L156.859 349.391L303.997 275.506" stroke="#00C3FF" stroke-width="0.889528" stroke-linejoin="round"/>
</g>
<g filter="url(#filter3_d_530_966)">
<path d="M303.997 268.559L296.716 265.104" stroke="#00C3FF" stroke-width="0.889528" stroke-linecap="round" stroke-linejoin="round"/>
</g>
<g filter="url(#filter4_d_530_966)">
<path d="M16.8376 266.537L9.93311 269.895" stroke="#00C3FF" stroke-width="0.889528" stroke-linecap="round" stroke-linejoin="round"/>
</g>
<g filter="url(#filter5_d_530_966)">
<path d="M9.93311 269.896L156.859 342.444L303.997 268.56" stroke="#00C3FF" stroke-width="0.889528" stroke-linejoin="round"/>
</g>
<g filter="url(#filter6_d_530_966)">
<path d="M303.997 282.49L296.716 279.035" stroke="#00C3FF" stroke-width="0.889528" stroke-linecap="round" stroke-linejoin="round"/>
</g>
<g filter="url(#filter7_d_530_966)">
<path d="M16.8376 280.467L9.93311 283.825" stroke="#00C3FF" stroke-width="0.889528" stroke-linecap="round" stroke-linejoin="round"/>
</g>
<g filter="url(#filter8_d_530_966)">
<path d="M9.93311 283.826L156.859 356.375L303.997 282.49" stroke="#00C3FF" stroke-width="0.889528" stroke-linejoin="round"/>
</g>
<path d="M108.339 285.155V57.9985" stroke="url(#paint0_linear_530_966)" stroke-width="0.93697" stroke-linecap="square"/>
<path d="M209.192 275.251V127.335" stroke="url(#paint1_linear_530_966)" stroke-width="0.759064" stroke-linecap="square"/>
<path d="M130.613 176.201V28.2856" stroke="url(#paint2_linear_530_966)" stroke-width="0.759064" stroke-linecap="square"/>
<path d="M80.4229 269.312V121.391" stroke="url(#paint3_linear_530_966)" stroke-width="0.759064" stroke-linecap="square"/>
<path d="M196.75 223.744V63.9443" stroke="url(#paint4_linear_530_966)" stroke-width="0.794645" stroke-linecap="square"/>
<path d="M145.904 300.343V196.01" stroke="url(#paint5_linear_530_966)" stroke-width="0.64046" stroke-linecap="square"/>
<path d="M235.711 192.707V74.5042" stroke="url(#paint6_linear_530_966)" stroke-width="0.676042" stroke-linecap="square"/>
<path d="M165.627 256.596V138.394" stroke="url(#paint7_linear_530_966)" stroke-width="0.676042" stroke-linecap="square"/>
<path d="M70.0693 171.58V91.0156" stroke="url(#paint8_linear_530_966)" stroke-width="0.557438" stroke-linecap="square"/>
<path d="M244.456 246.91V166.346" stroke="url(#paint9_linear_530_966)" stroke-width="0.557438" stroke-linecap="square"/>
<path d="M179.613 118.251V50.0134" stroke="url(#paint10_linear_530_966)" stroke-width="0.521857" stroke-linecap="square"/>
<path d="M61.1555 261.612L156.622 308.948L252.387 261.059V20.2153H61.1555V261.612Z" fill="url(#paint11_linear_530_966)"/>
<path d="M91.9863 276.873L156.677 308.948L221.563 276.496V0H91.9863V276.873Z" fill="url(#paint12_linear_530_966)"/>
<path d="M228.084 191.955L224.643 194.922L225.117 197.533L228.796 195.812L237.162 197.592L236.687 194.981L228.084 191.955ZM228.677 195.693L225.236 197.295L224.821 195.041L227.965 192.371L228.025 192.311L228.677 195.693ZM236.865 197.414L228.796 195.693L228.143 192.252L236.39 195.219L236.865 197.414Z" stroke="url(#paint13_linear_530_966)" stroke-width="0.474415" stroke-miterlimit="10" stroke-linejoin="round"/>
<path d="M230.457 205.068L226.423 204.771L226.897 207.382L231.169 208.924L238.111 203.05L237.637 200.44L230.457 205.068ZM231.051 208.687L227.075 207.263L226.66 205.008L230.398 205.246L231.051 208.687ZM237.933 202.932L231.229 208.628L230.576 205.186L237.459 200.677L237.933 202.932Z" stroke="url(#paint14_linear_530_966)" stroke-width="0.474415" stroke-miterlimit="10" stroke-linejoin="round"/>
<path d="M229.093 197.532L221.676 200.914L222.032 202.753L230.161 203.287L233.721 201.033L233.246 198.422L229.093 197.532ZM230.042 203.109L222.21 202.575L221.913 201.033L228.974 197.769L229.093 197.71L230.042 203.109ZM233.542 200.973L230.22 203.05L229.271 197.769L233.127 198.6L233.542 200.973Z" stroke="url(#paint15_linear_530_966)" stroke-width="0.474415" stroke-miterlimit="10" stroke-linejoin="round"/>
<path d="M226.838 185.132L241.493 190.354L244.282 205.661L232.415 215.748L217.76 210.527L214.971 195.219L226.838 185.132ZM226.778 184.776L214.675 195.1L217.523 210.764L232.534 216.104L244.638 205.78L241.79 190.116L226.778 184.776Z" stroke="url(#paint16_linear_530_966)" stroke-width="0.474415" stroke-miterlimit="10" stroke-linejoin="round"/>
<path d="M96.6455 211.288C92.2999 212.716 87.2392 211.233 84.4888 207.664C82.3435 204.864 81.7384 201.68 82.1235 198.276C82.4535 195.805 83.3886 193.499 84.3788 191.193C85.2589 189.216 86.249 187.294 87.0191 185.263C87.1292 184.934 87.2392 184.604 87.7342 184.879C90.1546 186.251 92.795 187.13 95.3253 188.393C97.6357 189.546 99.836 190.863 101.596 192.84C105.502 197.287 105.997 203.491 101.761 208.213C100.386 209.641 98.9558 210.574 96.6455 211.288Z" stroke="url(#paint17_linear_530_966)" stroke-width="0.474415" stroke-miterlimit="10" stroke-linejoin="round"/>
<path d="M97.2506 197.231C96.9756 196.078 95.7654 195.145 94.0602 195.2L93.8401 193.498L92.5199 193.663L92.74 195.31C92.4099 195.365 92.0249 195.42 91.6948 195.474L91.4748 193.772L90.1546 193.937L90.3746 195.639L88.0093 195.914L88.1743 197.286L89.1094 197.176C89.6595 197.122 89.8245 197.396 89.9346 197.671L90.6497 203.491C90.6497 203.655 90.5947 203.93 90.2096 203.985L89.2745 204.095L89.2195 205.687L91.5848 205.412L91.8048 207.279L93.125 207.114L92.905 205.248C93.235 205.193 93.6201 205.193 93.9501 205.138L94.1702 207.005L95.4904 206.84L95.2703 204.973C97.4156 204.589 98.7908 203.491 98.5708 201.843C98.4058 200.471 97.8007 199.702 96.6455 199.373C97.1406 198.988 97.4706 198.165 97.2506 197.231ZM96.2605 201.843C96.4805 203.436 93.6751 203.6 92.795 203.71L92.4649 200.855C93.29 200.8 96.0404 200.196 96.2605 201.843ZM95.1603 197.945C95.3253 199.428 93.015 199.537 92.2999 199.592L91.9699 197.012C92.685 196.902 94.9953 196.408 95.1603 197.945Z" stroke="url(#paint18_linear_530_966)" stroke-width="0.474415" stroke-miterlimit="10" stroke-linejoin="round"/>
<path d="M170.032 113.754L178.398 108.473L191.451 111.084L197.147 119.153M170.032 113.754L175.728 121.823M170.032 113.754L165.76 119.213M175.728 121.823L188.781 124.433M175.728 121.823L172.524 129.893M188.781 124.433L197.147 119.153M188.781 124.433L188.662 133.097M197.147 119.153L199.045 125.799M188.662 133.097L199.045 125.799M188.662 133.097L172.524 129.893M188.662 133.097L179.94 143.244M199.045 125.799L181.72 142.354L179.94 143.244M172.524 129.893L165.76 119.213M172.524 129.893L176.736 142.591M165.76 119.213L175.372 141.048L176.736 142.591M176.736 142.591L179.94 143.244" stroke="url(#paint19_linear_530_966)" stroke-width="0.626854" stroke-miterlimit="10" stroke-linejoin="round"/>
<path opacity="0.4" d="M141.24 176.791L144.503 172.697L151.445 171.748L155.657 174.774M141.24 176.791L145.452 179.817M141.24 176.791L140.053 180.233L145.274 184.386M145.452 179.817L152.394 178.867M145.452 179.817L145.274 184.386M152.394 178.867L155.657 174.774M152.394 178.867L153.878 183.138M155.657 174.774L157.734 177.739M153.878 183.138L157.734 177.739M153.878 183.138L151.267 189.725M153.878 183.138L145.274 184.384M157.734 177.739L152.038 188.953L151.267 189.725M145.274 184.386L145.452 179.818L152.394 178.869L153.878 183.141L145.274 184.386ZM145.274 184.384L140.053 180.231L148.656 189.427L149.546 189.961M145.274 184.384L149.546 189.961M149.546 189.961L151.267 189.725" stroke="url(#paint20_linear_530_966)" stroke-width="0.626854" stroke-miterlimit="10" stroke-linejoin="round"/>
<g opacity="0.2">
<path d="M85.1899 91.6342L80.0279 93.5922L79.4939 96.7962L84.4185 96.3808L93.1998 101.839L93.7338 98.6355L85.1899 91.6342ZM84.2999 96.0842L79.7313 96.4995L80.2059 93.7109L84.8339 91.9309L84.9525 91.8716L84.2999 96.0842ZM93.0218 101.424L84.5372 96.1435L85.1899 91.9902L93.4371 98.6948L93.0218 101.424Z" stroke="url(#paint21_linear_530_966)" stroke-width="0.626854" stroke-miterlimit="10" stroke-linejoin="round"/>
<path d="M82.5795 107.536L78.0703 105.578L77.5363 108.782L81.8082 112.283L92.1321 108.367L92.6661 105.163L82.5795 107.536ZM81.7489 111.927L77.7736 108.723L78.2483 105.934L82.4609 107.773L81.7489 111.927ZM91.9541 108.189L81.9862 111.986L82.6389 107.833L92.3694 105.459L91.9541 108.189Z" stroke="url(#paint22_linear_530_966)" stroke-width="0.626854" stroke-miterlimit="10" stroke-linejoin="round"/>
<path d="M84.0627 98.3974L74.2135 99.2874L73.8575 101.483L82.8761 105.399L87.9193 104.271L88.4533 101.067L84.0627 98.3974ZM82.8761 105.161L74.1542 101.364L74.4508 99.5247L83.8254 98.6941H83.9441L82.8761 105.161ZM87.7413 104.153L83.1134 105.221L84.1814 98.7534L88.2753 101.305L87.7413 104.153Z" stroke="url(#paint23_linear_530_966)" stroke-width="0.626854" stroke-miterlimit="10" stroke-linejoin="round"/>
<path d="M86.5545 83.2683L101.21 95.2535L98.1837 113.943L80.5026 120.648L65.8475 108.663L68.8734 89.9729L86.5545 83.2683ZM86.5545 82.9124L68.5174 89.7356L65.4321 108.781L80.384 120.945L98.4211 114.121L101.506 95.0755L86.5545 82.9124Z" stroke="url(#paint24_linear_530_966)" stroke-width="0.626854" stroke-miterlimit="10" stroke-linejoin="round"/>
</g>
<path d="M232.509 142.588C229.424 141.579 227.229 138.553 227.169 135.35C227.169 132.858 228.178 130.781 229.839 129.001C231.085 127.696 232.568 126.806 234.17 125.975C235.535 125.263 236.9 124.551 238.205 123.72C238.383 123.602 238.62 123.424 238.739 123.78C239.51 125.619 240.638 127.221 241.528 129.001C242.358 130.662 243.011 132.324 243.189 134.163C243.486 138.375 241.112 142.113 236.722 142.944C235.357 143.3 234.17 143.181 232.509 142.588Z" stroke="url(#paint25_linear_530_966)" stroke-width="0.474415" stroke-miterlimit="10" stroke-linejoin="round"/>
<path d="M238.858 134.876C239.214 134.104 238.917 133.096 237.908 132.384L238.502 131.316L237.73 130.841L237.137 131.85C236.9 131.731 236.722 131.613 236.484 131.494L237.078 130.426L236.306 129.951L235.713 131.019L234.289 130.189L233.814 131.019L234.408 131.375C234.704 131.553 234.704 131.79 234.645 131.968L232.568 135.588C232.509 135.706 232.331 135.825 232.094 135.706L231.5 135.35L230.788 136.24L232.212 137.071L231.56 138.258L232.331 138.732L232.984 137.605C233.221 137.724 233.399 137.842 233.636 137.961L232.984 139.088L233.755 139.563L234.408 138.376C235.772 139.088 237.018 139.029 237.612 138.02C238.086 137.19 238.086 136.478 237.612 135.766C238.086 135.825 238.62 135.528 238.858 134.876ZM236.306 137.071C235.713 138.08 234.111 136.952 233.577 136.656L234.586 134.876C235.12 135.232 236.9 136.062 236.306 137.071ZM237.374 134.401C236.84 135.291 235.476 134.401 235.06 134.104L236.01 132.502C236.425 132.74 237.908 133.452 237.374 134.401Z" stroke="url(#paint26_linear_530_966)" stroke-width="0.474415" stroke-miterlimit="10" stroke-linejoin="round"/>
<path d="M114.432 144.053C114.491 143.104 114.016 142.629 113.304 142.511C113.72 142.273 114.016 141.858 113.898 141.205C113.779 140.315 113.008 140.019 111.999 139.959L111.94 138.713H111.168L111.228 139.959C111.05 139.959 110.812 139.959 110.634 140.019L110.575 138.773H109.804L109.863 140.019C109.685 140.019 109.507 140.019 109.388 140.019L108.32 140.078L108.38 140.909C108.38 140.909 108.973 140.849 108.914 140.909C109.21 140.909 109.329 141.087 109.388 141.205L109.507 144.647C109.507 144.765 109.448 144.884 109.21 144.884H108.676L108.558 145.833L109.566 145.774C109.744 145.774 109.922 145.774 110.1 145.774L110.16 147.02H110.931L110.872 145.774C111.109 145.774 111.287 145.774 111.465 145.774L111.524 147.02H112.296L112.236 145.774C113.482 145.655 114.372 145.299 114.432 144.053ZM110.634 140.909C111.05 140.909 112.414 140.731 112.474 141.621C112.533 142.511 111.168 142.451 110.694 142.451L110.634 140.909ZM110.812 144.884L110.753 143.223C111.287 143.223 112.889 142.985 112.948 143.994C112.948 144.943 111.287 144.884 110.812 144.884Z" stroke="url(#paint27_linear_530_966)" stroke-width="0.355811" stroke-miterlimit="10" stroke-linejoin="round"/>
<path d="M111.05 136.221C107.312 136.34 104.404 139.484 104.523 143.222C104.642 146.96 107.786 149.867 111.524 149.749C115.262 149.63 118.17 146.486 118.051 142.748C117.932 139.01 114.788 136.043 111.05 136.221Z" stroke="url(#paint28_linear_530_966)" stroke-width="0.355811" stroke-miterlimit="10" stroke-linejoin="round"/>
<g opacity="0.4">
<path d="M191.156 253.294C192.699 250.861 192.046 249.14 190.385 247.716C191.809 247.716 193.114 247.064 193.767 245.224C194.716 242.732 193.114 240.952 190.623 239.41L192.284 236.147L190.266 235.138L188.664 238.342C188.131 238.105 187.597 237.808 187.063 237.571L188.664 234.367L186.647 233.358L184.986 236.621C184.571 236.384 184.096 236.206 183.681 235.969L180.951 234.545L179.883 236.681C179.883 236.681 181.367 237.393 181.307 237.393C182.138 237.808 182.138 238.401 182.019 238.876L177.451 247.835C177.273 248.072 176.917 248.428 176.383 248.132C176.383 248.191 174.959 247.42 174.959 247.42L173.357 249.615L175.967 250.92C176.442 251.158 176.917 251.395 177.391 251.632L175.73 254.955L177.747 255.964L179.409 252.7C179.943 252.997 180.477 253.234 181.011 253.531L179.349 256.794L181.367 257.803L183.028 254.48C186.469 255.904 189.258 256.26 191.156 253.294ZM185.995 239.885C187.122 240.478 190.86 241.902 189.614 244.216C188.487 246.47 185.045 244.394 183.977 243.86L185.995 239.885ZM180.714 250.208L182.969 245.818C184.333 246.53 188.724 248.25 187.419 250.861C186.173 253.353 182.079 250.92 180.714 250.208Z" stroke="url(#paint29_linear_530_966)" stroke-width="0.626854" stroke-miterlimit="10" stroke-linejoin="round"/>
<path d="M193.648 228.373C183.917 223.448 172.051 227.305 167.067 237.035C162.142 246.766 165.999 258.632 175.729 263.616C185.46 268.541 197.327 264.684 202.31 254.954C207.235 245.223 203.378 233.357 193.648 228.373Z" stroke="url(#paint30_linear_530_966)" stroke-width="0.626854" stroke-miterlimit="10" stroke-linejoin="round"/>
</g>
<path d="M135.737 83.0788L139.713 81.2988L145.171 83.2568L147.129 87.1728M135.737 83.0788L137.695 86.9354M135.737 83.0788L133.542 85.1562M137.695 86.9354L143.154 88.8934M137.695 86.9354L135.797 90.1995M143.154 88.8934L147.129 87.1728M143.154 88.8934L142.561 92.6318M147.129 87.1728L147.545 90.1398M142.561 92.6318L147.545 90.1398M142.561 92.6318L135.797 90.1995M142.561 92.6318L138.17 96.4877M147.545 90.1398L139.001 96.1911L138.17 96.4877M135.797 90.1995L133.542 85.1562M135.797 90.1995L136.806 96.0129M133.542 85.1562L136.331 95.2416L136.806 96.0129M136.806 96.0129L138.17 96.4877" stroke="url(#paint31_linear_530_966)" stroke-width="0.355811" stroke-miterlimit="10" stroke-linejoin="round"/>
<path opacity="0.3" d="M192.283 65.2175L194.004 62.0729L192.698 60.5896L191.215 63.0222M192.283 65.2175L191.215 63.0222M192.283 65.2175L187.774 66.463L187.536 63.971L191.215 63.0222M187.774 66.4654L184.688 64.6261L185.044 62.6682L187.536 63.9735L187.774 66.4654ZM187.774 66.4654L184.689 64.5667L189.91 68.9573L190.444 69.1946M187.774 66.4654L190.444 69.1946M187.774 66.4654L192.283 65.2201M190.444 69.1946L191.334 68.9581M192.283 65.2201L194.004 62.0755L191.69 68.4834L191.334 68.9581M192.283 65.2201L191.334 68.9581M190.207 59.2229L186.528 60.2316L185.045 62.6642L187.537 63.9695L191.215 63.0202L192.699 60.5876L190.207 59.2229Z" stroke="url(#paint32_linear_530_966)" stroke-width="0.474415" stroke-miterlimit="10" stroke-linejoin="round"/>
<g opacity="0.4">
<path d="M206.846 174.313C207.119 173.356 206.793 172.796 206.056 172.464C206.536 172.276 206.917 171.938 206.989 171.33C207.084 170.362 206.318 169.92 205.361 169.647L205.616 168.4L204.869 168.247L204.614 169.494C204.434 169.483 204.185 169.432 204.005 169.421L204.261 168.175L203.513 168.022L203.258 169.269C203.078 169.258 202.939 169.177 202.76 169.167L201.693 168.923L201.5 169.74C201.5 169.74 202.108 169.813 202.068 169.882C202.387 169.973 202.486 170.124 202.475 170.303L201.76 173.793C201.72 173.862 201.639 174.002 201.46 173.991L200.892 173.849L200.548 174.766L201.545 174.969C201.725 174.98 201.904 174.991 202.113 175.112L201.818 176.428L202.565 176.58L202.82 175.334C203.07 175.385 203.249 175.396 203.388 175.476L203.133 176.722L203.881 176.875L204.136 175.629C205.502 175.675 206.48 175.589 206.846 174.313ZM203.772 170.309C204.2 170.37 205.596 170.526 205.432 171.453C205.268 172.381 203.924 171.976 203.425 171.874L203.772 170.309ZM202.955 174.297L203.312 172.552C203.811 172.654 205.566 172.831 205.361 173.828C205.117 174.895 203.523 174.439 202.955 174.297Z" stroke="url(#paint33_linear_530_966)" stroke-width="0.626854" stroke-miterlimit="10" stroke-linejoin="round"/>
<path d="M205.281 165.605C201.434 164.87 197.791 167.32 197.054 171.168C196.318 175.017 198.765 178.66 202.612 179.395C206.46 180.129 210.103 177.68 210.839 173.831C211.535 170.052 209.059 166.299 205.281 165.605Z" stroke="url(#paint34_linear_530_966)" stroke-width="0.626854" stroke-miterlimit="10" stroke-linejoin="round"/>
</g>
<g opacity="0.3">
<path d="M113.661 255.624C110.813 255.031 108.499 252.598 108.143 249.751C107.847 247.555 108.499 245.597 109.864 243.817C110.813 242.512 112.059 241.563 113.365 240.673C114.492 239.842 115.679 239.13 116.687 238.24C116.865 238.121 116.984 237.943 117.221 238.24C118.111 239.783 119.298 241.088 120.307 242.571C121.256 243.936 122.027 245.36 122.324 247.021C123.036 250.7 121.315 254.319 117.518 255.565C116.272 255.921 115.204 255.98 113.661 255.624Z" stroke="url(#paint35_linear_530_966)" stroke-width="0.474415" stroke-miterlimit="10" stroke-linejoin="round"/>
<path d="M118.467 248.09C118.705 247.378 118.289 246.488 117.34 245.954L117.755 244.945L116.984 244.589L116.569 245.598C116.391 245.538 116.153 245.42 115.975 245.36L116.391 244.352L115.619 243.996L115.204 245.004L113.839 244.411L113.483 245.242C113.483 245.242 114.077 245.479 114.017 245.479C114.314 245.598 114.373 245.835 114.314 246.013L112.831 249.454C112.771 249.573 112.653 249.692 112.415 249.573L111.881 249.336L111.347 250.166L112.712 250.76L112.237 251.887L113.009 252.243L113.483 251.175C113.661 251.294 113.899 251.353 114.077 251.412L113.602 252.48L114.373 252.836L114.848 251.709C116.153 252.184 117.221 252.006 117.696 250.997C118.052 250.226 117.933 249.573 117.459 249.039C117.874 248.98 118.289 248.624 118.467 248.09ZM116.45 250.285C116.035 251.234 114.492 250.404 113.958 250.226L114.67 248.564C115.204 248.742 116.865 249.276 116.45 250.285ZM117.103 247.793C116.747 248.683 115.441 247.971 114.967 247.793L115.619 246.25C116.094 246.428 117.518 246.844 117.103 247.793Z" stroke="url(#paint36_linear_530_966)" stroke-width="0.474415" stroke-miterlimit="10" stroke-linejoin="round"/>
</g>
<path d="M231.441 82.2647L230.551 82.68L230.433 82.0867L231.263 81.3747M231.441 82.2647L231.263 81.3747M231.441 82.2647L233.577 82.7393L233.459 82.146L231.263 81.3747M231.797 84.2232L229.661 84.1045L229.602 83.6299L231.56 82.7399L232.628 82.9179L232.747 83.6299L231.797 84.2232ZM231.797 84.2232L229.721 84.1045L229.661 83.6892L231.56 82.7992M231.797 84.2232L231.56 82.7992M231.797 84.2232L232.687 83.6892L232.569 83.0366L231.56 82.7992M231.263 81.256L230.373 82.0274L230.492 82.7393L231.501 82.2647L233.696 82.7393L233.577 82.0274L231.263 81.256ZM231.916 84.7566L230.848 84.6973L230.967 85.4093L232.094 85.8246L233.933 84.282L233.815 83.57L231.916 84.7566ZM232.035 85.7059L230.967 85.3499L230.848 84.7566L231.857 84.816L232.035 85.7059ZM233.874 84.2226L232.094 85.7059L231.916 84.816L233.755 83.6293L233.874 84.2226ZM230.966 79.6555L234.704 80.9609L235.416 84.8768L232.39 87.4281L228.652 86.1228L227.94 82.2068L230.966 79.6555ZM230.907 79.3589L227.703 82.0882L228.474 86.2415L232.45 87.6655L235.654 84.9361L234.882 80.7829L230.907 79.3589Z" stroke="url(#paint37_linear_530_966)" stroke-width="0.118604" stroke-miterlimit="10" stroke-linejoin="round"/>
<path opacity="0.4" d="M116.847 63.7306L113.88 63.4933L112.456 61.8319L114.177 60.408L117.143 60.7046L118.567 62.3659M116.847 63.7306L118.567 62.3659M116.847 63.7306L117.025 65.6286M118.567 62.3659L119.161 63.7893M117.025 65.6286L119.161 63.7893M117.025 65.6286L113.346 65.3306M117.025 65.6286L116.847 63.7292L113.88 63.4913M117.025 65.6286L115.304 68.1201L115.719 67.8827L119.161 63.7893M113.346 65.3306L111.625 63.1353M113.346 65.3306L113.88 63.4913M113.346 65.3306L114.592 68.0595M113.346 65.3306L117.025 65.6264L115.304 68.1183L114.592 68.0595M111.625 63.1353L112.456 61.83L113.88 63.4913M111.625 63.1353L114.295 67.7628L114.592 68.0595" stroke="url(#paint38_linear_530_966)" stroke-width="0.296509" stroke-miterlimit="10" stroke-linejoin="round"/>
<circle cx="157.973" cy="219.75" r="41.9999" transform="rotate(-180 157.973 219.75)" fill="url(#paint39_linear_530_966)" stroke="white" stroke-width="1.5"/>
<path fill-rule="evenodd" clip-rule="evenodd" d="M167.785 204.802C172.853 206.661 176.503 209.414 175.667 214.698C175.033 218.544 173.017 220.424 170.292 221.088C173.918 223.117 175.663 226.196 173.796 231.598C171.474 238.372 166.277 238.987 159.393 237.675L157.62 244.824L153.621 243.834L155.393 236.684C154.958 236.568 154.499 236.461 154.028 236.352C153.4 236.205 152.75 236.054 152.107 235.87L150.335 243.02L146.343 242.031L148.115 234.881L140.161 232.716L142.138 227.66C142.138 227.66 145.14 228.485 145.094 228.433C146.207 228.704 146.752 227.927 146.975 227.382L149.813 215.92L151.878 207.773C151.967 206.893 151.692 205.741 150.065 205.302C150.175 205.237 147.136 204.577 147.136 204.577L148.32 199.786L156.518 201.816L158.253 194.812L162.383 195.835L160.647 202.839C161.45 203.014 162.235 203.216 163.028 203.421L163.028 203.422C163.288 203.489 163.55 203.556 163.813 203.623L165.549 196.62L169.567 197.615L167.785 204.802ZM156.827 216.064C156.89 216.082 156.956 216.102 157.027 216.124C159.429 216.845 166.549 218.984 167.749 214.222C168.865 209.695 162.697 208.313 159.83 207.67C159.492 207.594 159.199 207.529 158.97 207.47L156.827 216.064ZM153.667 230.183C153.541 230.145 153.425 230.111 153.319 230.08L155.463 221.486C155.716 221.552 156.036 221.627 156.407 221.714C159.785 222.508 167.332 224.28 166.159 228.832C165.021 233.559 156.626 231.063 153.667 230.183Z" fill="#FAFAFA"/>
<defs>
<filter id="filter0_d_530_966" x="286.783" y="262.118" width="27.1473" height="23.3216" filterUnits="userSpaceOnUse" color-interpolation-filters="sRGB">
<feFlood flood-opacity="0" result="BackgroundImageFix"/>
<feColorMatrix in="SourceAlpha" type="matrix" values="0 0 0 0 0 0 0 0 0 0 0 0 0 0 0 0 0 0 127 0" result="hardAlpha"/>
<feOffset/>
<feGaussianBlur stdDeviation="4.74415"/>
<feColorMatrix type="matrix" values="0 0 0 0 0.172549 0 0 0 0 0.796078 0 0 0 0 0.745098 0 0 0 0.8 0"/>
<feBlend mode="normal" in2="BackgroundImageFix" result="effect1_dropShadow_530_966"/>
<feBlend mode="normal" in="SourceGraphic" in2="effect1_dropShadow_530_966" result="shape"/>
</filter>
<filter id="filter1_d_530_966" x="-2.00272e-05" y="263.551" width="26.7708" height="23.2244" filterUnits="userSpaceOnUse" color-interpolation-filters="sRGB">
<feFlood flood-opacity="0" result="BackgroundImageFix"/>
<feColorMatrix in="SourceAlpha" type="matrix" values="0 0 0 0 0 0 0 0 0 0 0 0 0 0 0 0 0 0 127 0" result="hardAlpha"/>
<feOffset/>
<feGaussianBlur stdDeviation="4.74415"/>
<feColorMatrix type="matrix" values="0 0 0 0 0.172549 0 0 0 0 0.796078 0 0 0 0 0.745098 0 0 0 0.8 0"/>
<feBlend mode="normal" in2="BackgroundImageFix" result="effect1_dropShadow_530_966"/>
<feBlend mode="normal" in="SourceGraphic" in2="effect1_dropShadow_530_966" result="shape"/>
</filter>
<filter id="filter2_d_530_966" x="0.247783" y="265.62" width="313.437" height="93.7037" filterUnits="userSpaceOnUse" color-interpolation-filters="sRGB">
<feFlood flood-opacity="0" result="BackgroundImageFix"/>
<feColorMatrix in="SourceAlpha" type="matrix" values="0 0 0 0 0 0 0 0 0 0 0 0 0 0 0 0 0 0 127 0" result="hardAlpha"/>
<feOffset/>
<feGaussianBlur stdDeviation="4.74415"/>
<feColorMatrix type="matrix" values="0 0 0 0 0.172549 0 0 0 0 0.796078 0 0 0 0 0.745098 0 0 0 0.8 0"/>
<feBlend mode="normal" in2="BackgroundImageFix" result="effect1_dropShadow_530_966"/>
<feBlend mode="normal" in="SourceGraphic" in2="effect1_dropShadow_530_966" result="shape"/>
</filter>
<filter id="filter3_d_530_966" x="286.783" y="255.171" width="27.1473" height="23.3216" filterUnits="userSpaceOnUse" color-interpolation-filters="sRGB">
<feFlood flood-opacity="0" result="BackgroundImageFix"/>
<feColorMatrix in="SourceAlpha" type="matrix" values="0 0 0 0 0 0 0 0 0 0 0 0 0 0 0 0 0 0 127 0" result="hardAlpha"/>
<feOffset/>
<feGaussianBlur stdDeviation="4.74415"/>
<feColorMatrix type="matrix" values="0 0 0 0 0.172549 0 0 0 0 0.796078 0 0 0 0 0.745098 0 0 0 0.8 0"/>
<feBlend mode="normal" in2="BackgroundImageFix" result="effect1_dropShadow_530_966"/>
<feBlend mode="normal" in="SourceGraphic" in2="effect1_dropShadow_530_966" result="shape"/>
</filter>
<filter id="filter4_d_530_966" x="-2.00272e-05" y="256.604" width="26.7708" height="23.2244" filterUnits="userSpaceOnUse" color-interpolation-filters="sRGB">
<feFlood flood-opacity="0" result="BackgroundImageFix"/>
<feColorMatrix in="SourceAlpha" type="matrix" values="0 0 0 0 0 0 0 0 0 0 0 0 0 0 0 0 0 0 127 0" result="hardAlpha"/>
<feOffset/>
<feGaussianBlur stdDeviation="4.74415"/>
<feColorMatrix type="matrix" values="0 0 0 0 0.172549 0 0 0 0 0.796078 0 0 0 0 0.745098 0 0 0 0.8 0"/>
<feBlend mode="normal" in2="BackgroundImageFix" result="effect1_dropShadow_530_966"/>
<feBlend mode="normal" in="SourceGraphic" in2="effect1_dropShadow_530_966" result="shape"/>
</filter>
<filter id="filter5_d_530_966" x="0.247783" y="258.674" width="313.437" height="93.7037" filterUnits="userSpaceOnUse" color-interpolation-filters="sRGB">
<feFlood flood-opacity="0" result="BackgroundImageFix"/>
<feColorMatrix in="SourceAlpha" type="matrix" values="0 0 0 0 0 0 0 0 0 0 0 0 0 0 0 0 0 0 127 0" result="hardAlpha"/>
<feOffset/>
<feGaussianBlur stdDeviation="4.74415"/>
<feColorMatrix type="matrix" values="0 0 0 0 0.172549 0 0 0 0 0.796078 0 0 0 0 0.745098 0 0 0 0.8 0"/>
<feBlend mode="normal" in2="BackgroundImageFix" result="effect1_dropShadow_530_966"/>
<feBlend mode="normal" in="SourceGraphic" in2="effect1_dropShadow_530_966" result="shape"/>
</filter>
<filter id="filter6_d_530_966" x="286.783" y="269.102" width="27.1473" height="23.3216" filterUnits="userSpaceOnUse" color-interpolation-filters="sRGB">
<feFlood flood-opacity="0" result="BackgroundImageFix"/>
<feColorMatrix in="SourceAlpha" type="matrix" values="0 0 0 0 0 0 0 0 0 0 0 0 0 0 0 0 0 0 127 0" result="hardAlpha"/>
<feOffset/>
<feGaussianBlur stdDeviation="4.74415"/>
<feColorMatrix type="matrix" values="0 0 0 0 0.172549 0 0 0 0 0.796078 0 0 0 0 0.745098 0 0 0 0.8 0"/>
<feBlend mode="normal" in2="BackgroundImageFix" result="effect1_dropShadow_530_966"/>
<feBlend mode="normal" in="SourceGraphic" in2="effect1_dropShadow_530_966" result="shape"/>
</filter>
<filter id="filter7_d_530_966" x="-2.00272e-05" y="270.534" width="26.7708" height="23.2244" filterUnits="userSpaceOnUse" color-interpolation-filters="sRGB">
<feFlood flood-opacity="0" result="BackgroundImageFix"/>
<feColorMatrix in="SourceAlpha" type="matrix" values="0 0 0 0 0 0 0 0 0 0 0 0 0 0 0 0 0 0 127 0" result="hardAlpha"/>
<feOffset/>
<feGaussianBlur stdDeviation="4.74415"/>
<feColorMatrix type="matrix" values="0 0 0 0 0.172549 0 0 0 0 0.796078 0 0 0 0 0.745098 0 0 0 0.8 0"/>
<feBlend mode="normal" in2="BackgroundImageFix" result="effect1_dropShadow_530_966"/>
<feBlend mode="normal" in="SourceGraphic" in2="effect1_dropShadow_530_966" result="shape"/>
</filter>
<filter id="filter8_d_530_966" x="0.247783" y="272.604" width="313.437" height="93.7037" filterUnits="userSpaceOnUse" color-interpolation-filters="sRGB">
<feFlood flood-opacity="0" result="BackgroundImageFix"/>
<feColorMatrix in="SourceAlpha" type="matrix" values="0 0 0 0 0 0 0 0 0 0 0 0 0 0 0 0 0 0 127 0" result="hardAlpha"/>
<feOffset/>
<feGaussianBlur stdDeviation="4.74415"/>
<feColorMatrix type="matrix" values="0 0 0 0 0.172549 0 0 0 0 0.796078 0 0 0 0 0.745098 0 0 0 0.8 0"/>
<feBlend mode="normal" in2="BackgroundImageFix" result="effect1_dropShadow_530_966"/>
<feBlend mode="normal" in="SourceGraphic" in2="effect1_dropShadow_530_966" result="shape"/>
</filter>
<linearGradient id="paint0_linear_530_966" x1="nan" y1="nan" x2="nan" y2="nan" gradientUnits="userSpaceOnUse">
<stop stop-color="#2CCBBE" stop-opacity="0"/>
<stop offset="0.08" stop-color="#2CCBBE" stop-opacity="0.04"/>
<stop offset="0.21" stop-color="#2CCBBE" stop-opacity="0.15"/>
<stop offset="0.38" stop-color="#2CCBBE" stop-opacity="0.34"/>
<stop offset="0.5" stop-color="#2CCBBE" stop-opacity="0.5"/>
<stop offset="0.65" stop-color="#2CCBBE" stop-opacity="0.3"/>
<stop offset="0.8" stop-color="#2CCBBE" stop-opacity="0.14"/>
<stop offset="0.92" stop-color="#2CCBBE" stop-opacity="0.04"/>
<stop offset="1" stop-color="#2CCBBE" stop-opacity="0"/>
</linearGradient>
<linearGradient id="paint1_linear_530_966" x1="nan" y1="nan" x2="nan" y2="nan" gradientUnits="userSpaceOnUse">
<stop stop-color="#2CCBBE" stop-opacity="0"/>
<stop offset="0.06" stop-color="#2CCBBE" stop-opacity="0.04"/>
<stop offset="0.15" stop-color="#2CCBBE" stop-opacity="0.15"/>
<stop offset="0.27" stop-color="#2CCBBE" stop-opacity="0.34"/>
<stop offset="0.4" stop-color="#2CCBBE" stop-opacity="0.59"/>
<stop offset="0.5" stop-color="#2CCBBE" stop-opacity="0.8"/>
<stop offset="0.63" stop-color="#2CCBBE" stop-opacity="0.52"/>
<stop offset="0.75" stop-color="#2CCBBE" stop-opacity="0.3"/>
<stop offset="0.85" stop-color="#2CCBBE" stop-opacity="0.14"/>
<stop offset="0.94" stop-color="#2CCBBE" stop-opacity="0.04"/>
<stop offset="1" stop-color="#2CCBBE" stop-opacity="0"/>
</linearGradient>
<linearGradient id="paint2_linear_530_966" x1="nan" y1="nan" x2="nan" y2="nan" gradientUnits="userSpaceOnUse">
<stop stop-color="#2CCBBE" stop-opacity="0"/>
<stop offset="0.06" stop-color="#2CCBBE" stop-opacity="0.04"/>
<stop offset="0.15" stop-color="#2CCBBE" stop-opacity="0.15"/>
<stop offset="0.27" stop-color="#2CCBBE" stop-opacity="0.34"/>
<stop offset="0.4" stop-color="#2CCBBE" stop-opacity="0.59"/>
<stop offset="0.5" stop-color="#2CCBBE" stop-opacity="0.8"/>
<stop offset="0.63" stop-color="#2CCBBE" stop-opacity="0.52"/>
<stop offset="0.75" stop-color="#2CCBBE" stop-opacity="0.3"/>
<stop offset="0.85" stop-color="#2CCBBE" stop-opacity="0.14"/>
<stop offset="0.94" stop-color="#2CCBBE" stop-opacity="0.04"/>
<stop offset="1" stop-color="#2CCBBE" stop-opacity="0"/>
</linearGradient>
<linearGradient id="paint3_linear_530_966" x1="nan" y1="nan" x2="nan" y2="nan" gradientUnits="userSpaceOnUse">
<stop stop-color="#2CCBBE" stop-opacity="0"/>
<stop offset="0.06" stop-color="#2CCBBE" stop-opacity="0.04"/>
<stop offset="0.15" stop-color="#2CCBBE" stop-opacity="0.15"/>
<stop offset="0.27" stop-color="#2CCBBE" stop-opacity="0.34"/>
<stop offset="0.4" stop-color="#2CCBBE" stop-opacity="0.59"/>
<stop offset="0.5" stop-color="#2CCBBE" stop-opacity="0.8"/>
<stop offset="0.63" stop-color="#2CCBBE" stop-opacity="0.52"/>
<stop offset="0.75" stop-color="#2CCBBE" stop-opacity="0.3"/>
<stop offset="0.85" stop-color="#2CCBBE" stop-opacity="0.14"/>
<stop offset="0.94" stop-color="#2CCBBE" stop-opacity="0.04"/>
<stop offset="1" stop-color="#2CCBBE" stop-opacity="0"/>
</linearGradient>
<linearGradient id="paint4_linear_530_966" x1="nan" y1="nan" x2="nan" y2="nan" gradientUnits="userSpaceOnUse">
<stop stop-color="#2CCBBE" stop-opacity="0"/>
<stop offset="0.12" stop-color="#2CCBBE" stop-opacity="0.04"/>
<stop offset="0.31" stop-color="#2CCBBE" stop-opacity="0.15"/>
<stop offset="0.5" stop-color="#2CCBBE" stop-opacity="0.3"/>
<stop offset="0.71" stop-color="#2CCBBE" stop-opacity="0.14"/>
<stop offset="0.88" stop-color="#2CCBBE" stop-opacity="0.04"/>
<stop offset="1" stop-color="#2CCBBE" stop-opacity="0"/>
</linearGradient>
<linearGradient id="paint5_linear_530_966" x1="nan" y1="nan" x2="nan" y2="nan" gradientUnits="userSpaceOnUse">
<stop stop-color="#2CCBBE" stop-opacity="0"/>
<stop offset="0.06" stop-color="#2CCBBE" stop-opacity="0.04"/>
<stop offset="0.15" stop-color="#2CCBBE" stop-opacity="0.15"/>
<stop offset="0.27" stop-color="#2CCBBE" stop-opacity="0.34"/>
<stop offset="0.4" stop-color="#2CCBBE" stop-opacity="0.59"/>
<stop offset="0.5" stop-color="#2CCBBE" stop-opacity="0.8"/>
<stop offset="0.63" stop-color="#2CCBBE" stop-opacity="0.52"/>
<stop offset="0.75" stop-color="#2CCBBE" stop-opacity="0.3"/>
<stop offset="0.85" stop-color="#2CCBBE" stop-opacity="0.14"/>
<stop offset="0.94" stop-color="#2CCBBE" stop-opacity="0.04"/>
<stop offset="1" stop-color="#2CCBBE" stop-opacity="0"/>
</linearGradient>
<linearGradient id="paint6_linear_530_966" x1="nan" y1="nan" x2="nan" y2="nan" gradientUnits="userSpaceOnUse">
<stop stop-color="#2CCBBE" stop-opacity="0"/>
<stop offset="0.06" stop-color="#2CCBBE" stop-opacity="0.04"/>
<stop offset="0.15" stop-color="#2CCBBE" stop-opacity="0.15"/>
<stop offset="0.27" stop-color="#2CCBBE" stop-opacity="0.34"/>
<stop offset="0.4" stop-color="#2CCBBE" stop-opacity="0.59"/>
<stop offset="0.5" stop-color="#2CCBBE" stop-opacity="0.8"/>
<stop offset="0.63" stop-color="#2CCBBE" stop-opacity="0.52"/>
<stop offset="0.75" stop-color="#2CCBBE" stop-opacity="0.3"/>
<stop offset="0.85" stop-color="#2CCBBE" stop-opacity="0.14"/>
<stop offset="0.94" stop-color="#2CCBBE" stop-opacity="0.04"/>
<stop offset="1" stop-color="#2CCBBE" stop-opacity="0"/>
</linearGradient>
<linearGradient id="paint7_linear_530_966" x1="nan" y1="nan" x2="nan" y2="nan" gradientUnits="userSpaceOnUse">
<stop stop-color="#2CCBBE" stop-opacity="0"/>
<stop offset="0.08" stop-color="#2CCBBE" stop-opacity="0.04"/>
<stop offset="0.21" stop-color="#2CCBBE" stop-opacity="0.15"/>
<stop offset="0.38" stop-color="#2CCBBE" stop-opacity="0.34"/>
<stop offset="0.5" stop-color="#2CCBBE" stop-opacity="0.5"/>
<stop offset="0.65" stop-color="#2CCBBE" stop-opacity="0.3"/>
<stop offset="0.8" stop-color="#2CCBBE" stop-opacity="0.14"/>
<stop offset="0.92" stop-color="#2CCBBE" stop-opacity="0.04"/>
<stop offset="1" stop-color="#2CCBBE" stop-opacity="0"/>
</linearGradient>
<linearGradient id="paint8_linear_530_966" x1="nan" y1="nan" x2="nan" y2="nan" gradientUnits="userSpaceOnUse">
<stop stop-color="#2CCBBE" stop-opacity="0"/>
<stop offset="0.06" stop-color="#2CCBBE" stop-opacity="0.04"/>
<stop offset="0.15" stop-color="#2CCBBE" stop-opacity="0.15"/>
<stop offset="0.27" stop-color="#2CCBBE" stop-opacity="0.34"/>
<stop offset="0.4" stop-color="#2CCBBE" stop-opacity="0.59"/>
<stop offset="0.5" stop-color="#2CCBBE" stop-opacity="0.8"/>
<stop offset="0.63" stop-color="#2CCBBE" stop-opacity="0.52"/>
<stop offset="0.75" stop-color="#2CCBBE" stop-opacity="0.3"/>
<stop offset="0.85" stop-color="#2CCBBE" stop-opacity="0.14"/>
<stop offset="0.94" stop-color="#2CCBBE" stop-opacity="0.04"/>
<stop offset="1" stop-color="#2CCBBE" stop-opacity="0"/>
</linearGradient>
<linearGradient id="paint9_linear_530_966" x1="nan" y1="nan" x2="nan" y2="nan" gradientUnits="userSpaceOnUse">
<stop stop-color="#2CCBBE" stop-opacity="0"/>
<stop offset="0.06" stop-color="#2CCBBE" stop-opacity="0.04"/>
<stop offset="0.15" stop-color="#2CCBBE" stop-opacity="0.15"/>
<stop offset="0.27" stop-color="#2CCBBE" stop-opacity="0.34"/>
<stop offset="0.4" stop-color="#2CCBBE" stop-opacity="0.59"/>
<stop offset="0.5" stop-color="#2CCBBE" stop-opacity="0.8"/>
<stop offset="0.63" stop-color="#2CCBBE" stop-opacity="0.52"/>
<stop offset="0.75" stop-color="#2CCBBE" stop-opacity="0.3"/>
<stop offset="0.85" stop-color="#2CCBBE" stop-opacity="0.14"/>
<stop offset="0.94" stop-color="#2CCBBE" stop-opacity="0.04"/>
<stop offset="1" stop-color="#2CCBBE" stop-opacity="0"/>
</linearGradient>
<linearGradient id="paint10_linear_530_966" x1="nan" y1="nan" x2="nan" y2="nan" gradientUnits="userSpaceOnUse">
<stop stop-color="#2CCBBE" stop-opacity="0"/>
<stop offset="0.07" stop-color="#2CCBBE" stop-opacity="0.04"/>
<stop offset="0.19" stop-color="#2CCBBE" stop-opacity="0.15"/>
<stop offset="0.33" stop-color="#2CCBBE" stop-opacity="0.34"/>
<stop offset="0.49" stop-color="#2CCBBE" stop-opacity="0.59"/>
<stop offset="0.5" stop-color="#2CCBBE" stop-opacity="0.6"/>
<stop offset="0.55" stop-color="#2CCBBE" stop-opacity="0.52"/>
<stop offset="0.69" stop-color="#2CCBBE" stop-opacity="0.3"/>
<stop offset="0.82" stop-color="#2CCBBE" stop-opacity="0.14"/>
<stop offset="0.93" stop-color="#2CCBBE" stop-opacity="0.04"/>
<stop offset="1" stop-color="#2CCBBE" stop-opacity="0"/>
</linearGradient>
<linearGradient id="paint11_linear_530_966" x1="156.774" y1="308.948" x2="156.774" y2="20.2153" gradientUnits="userSpaceOnUse">
<stop offset="0.03" stop-color="#00C3FF" stop-opacity="0.9"/>
<stop offset="0.82" stop-color="#00C3FF" stop-opacity="0"/>
</linearGradient>
<linearGradient id="paint12_linear_530_966" x1="156.775" y1="308.948" x2="156.775" y2="0" gradientUnits="userSpaceOnUse">
<stop offset="0.03" stop-color="#00C3FF" stop-opacity="0.7"/>
<stop offset="0.93" stop-color="#00C3FF" stop-opacity="0"/>
</linearGradient>
<linearGradient id="paint13_linear_530_966" x1="233.499" y1="223.117" x2="223.006" y2="179.481" gradientUnits="userSpaceOnUse">
<stop stop-color="#00C3FF"/>
<stop offset="0.734375" stop-color="#00C3FF"/>
</linearGradient>
<linearGradient id="paint14_linear_530_966" x1="233.499" y1="223.117" x2="223.006" y2="179.481" gradientUnits="userSpaceOnUse">
<stop stop-color="#00C3FF"/>
<stop offset="0.734375" stop-color="#00C3FF"/>
</linearGradient>
<linearGradient id="paint15_linear_530_966" x1="233.499" y1="223.117" x2="223.006" y2="179.481" gradientUnits="userSpaceOnUse">
<stop stop-color="#00C3FF"/>
<stop offset="0.734375" stop-color="#00C3FF"/>
</linearGradient>
<linearGradient id="paint16_linear_530_966" x1="233.499" y1="223.117" x2="223.006" y2="179.481" gradientUnits="userSpaceOnUse">
<stop stop-color="#00C3FF"/>
<stop offset="0.734375" stop-color="#00C3FF"/>
</linearGradient>
<linearGradient id="paint17_linear_530_966" x1="96.2899" y1="217.882" x2="86.1387" y2="180.805" gradientUnits="userSpaceOnUse">
<stop stop-color="#00C3FF"/>
<stop offset="0.734375" stop-color="#00C3FF"/>
</linearGradient>
<linearGradient id="paint18_linear_530_966" x1="96.2899" y1="217.882" x2="86.1387" y2="180.805" gradientUnits="userSpaceOnUse">
<stop stop-color="#00C3FF"/>
<stop offset="0.734375" stop-color="#00C3FF"/>
</linearGradient>
<linearGradient id="paint19_linear_530_966" x1="182.127" y1="114.306" x2="178.807" y2="148.17" gradientUnits="userSpaceOnUse">
<stop stop-color="#00C3FF"/>
<stop offset="0.705" stop-color="#00C3FF"/>
</linearGradient>
<linearGradient id="paint20_linear_530_966" x1="151.161" y1="194.039" x2="145.141" y2="168.628" gradientUnits="userSpaceOnUse">
<stop stop-color="#00C3FF"/>
<stop offset="0.734375" stop-color="#00C3FF"/>
</linearGradient>
<linearGradient id="paint21_linear_530_966" x1="88.0958" y1="129.459" x2="75.263" y2="76.5327" gradientUnits="userSpaceOnUse">
<stop stop-color="#00C3FF"/>
<stop offset="0.734375" stop-color="#00C3FF"/>
</linearGradient>
<linearGradient id="paint22_linear_530_966" x1="88.0958" y1="129.459" x2="75.263" y2="76.5327" gradientUnits="userSpaceOnUse">
<stop stop-color="#00C3FF"/>
<stop offset="0.734375" stop-color="#00C3FF"/>
</linearGradient>
<linearGradient id="paint23_linear_530_966" x1="88.0958" y1="129.459" x2="75.263" y2="76.5327" gradientUnits="userSpaceOnUse">
<stop stop-color="#00C3FF"/>
<stop offset="0.734375" stop-color="#00C3FF"/>
</linearGradient>
<linearGradient id="paint24_linear_530_966" x1="88.0958" y1="129.459" x2="75.263" y2="76.5327" gradientUnits="userSpaceOnUse">
<stop stop-color="#00C3FF"/>
<stop offset="0.734375" stop-color="#00C3FF"/>
</linearGradient>
<linearGradient id="paint25_linear_530_966" x1="237.249" y1="147.526" x2="229.747" y2="120.789" gradientUnits="userSpaceOnUse">
<stop stop-color="#00C3FF"/>
<stop offset="0.734375" stop-color="#00C3FF"/>
</linearGradient>
<linearGradient id="paint26_linear_530_966" x1="237.249" y1="147.526" x2="229.747" y2="120.789" gradientUnits="userSpaceOnUse">
<stop stop-color="#00C3FF"/>
<stop offset="0.734375" stop-color="#00C3FF"/>
</linearGradient>
<linearGradient id="paint27_linear_530_966" x1="113.023" y1="152.783" x2="108.664" y2="133.837" gradientUnits="userSpaceOnUse">
<stop stop-color="#00C3FF"/>
<stop offset="0.734375" stop-color="#00C3FF"/>
</linearGradient>
<linearGradient id="paint28_linear_530_966" x1="113.023" y1="152.783" x2="108.664" y2="133.837" gradientUnits="userSpaceOnUse">
<stop stop-color="#00C3FF"/>
<stop offset="0.734375" stop-color="#00C3FF"/>
</linearGradient>
<linearGradient id="paint29_linear_530_966" x1="186.353" y1="263.275" x2="177.238" y2="229.735" gradientUnits="userSpaceOnUse">
<stop stop-color="#00C3FF"/>
<stop offset="0.734375" stop-color="#00C3FF"/>
</linearGradient>
<linearGradient id="paint30_linear_530_966" x1="189.758" y1="274.605" x2="177.037" y2="219.294" gradientUnits="userSpaceOnUse">
<stop stop-color="#00C3FF"/>
<stop offset="0.734375" stop-color="#00C3FF"/>
</linearGradient>
<linearGradient id="paint31_linear_530_966" x1="142.34" y1="99.888" x2="137.084" y2="78.8195" gradientUnits="userSpaceOnUse">
<stop stop-color="#00C3FF"/>
<stop offset="0.734375" stop-color="#00C3FF"/>
</linearGradient>
<linearGradient id="paint32_linear_530_966" x1="190.541" y1="71.427" x2="187.13" y2="57.574" gradientUnits="userSpaceOnUse">
<stop stop-color="#00C3FF"/>
<stop offset="0.734375" stop-color="#00C3FF"/>
</linearGradient>
<linearGradient id="paint33_linear_530_966" x1="200.416" y1="182.223" x2="206.337" y2="162.913" gradientUnits="userSpaceOnUse">
<stop stop-color="#00C3FF"/>
<stop offset="0.734375" stop-color="#00C3FF"/>
</linearGradient>
<linearGradient id="paint34_linear_530_966" x1="200.416" y1="182.223" x2="206.337" y2="162.913" gradientUnits="userSpaceOnUse">
<stop stop-color="#00C3FF"/>
<stop offset="0.734375" stop-color="#00C3FF"/>
</linearGradient>
<linearGradient id="paint35_linear_530_966" x1="117.125" y1="259.845" x2="110.24" y2="235.594" gradientUnits="userSpaceOnUse">
<stop stop-color="#00C3FF"/>
<stop offset="0.734375" stop-color="#00C3FF"/>
</linearGradient>
<linearGradient id="paint36_linear_530_966" x1="117.125" y1="259.845" x2="110.24" y2="235.594" gradientUnits="userSpaceOnUse">
<stop stop-color="#00C3FF"/>
<stop offset="0.734375" stop-color="#00C3FF"/>
</linearGradient>
<linearGradient id="paint37_linear_530_966" x1="231.613" y1="80.7523" x2="230.819" y2="88.8423" gradientUnits="userSpaceOnUse">
<stop stop-color="#00C3FF"/>
<stop offset="0.705" stop-color="#00C3FF"/>
</linearGradient>
<linearGradient id="paint38_linear_530_966" x1="115.331" y1="61.7017" x2="114.609" y2="69.2156" gradientUnits="userSpaceOnUse">
<stop stop-color="#00C3FF"/>
<stop offset="0.705" stop-color="#00C3FF"/>
</linearGradient>
<linearGradient id="paint39_linear_530_966" x1="157.973" y1="177" x2="157.973" y2="262.5" gradientUnits="userSpaceOnUse">
<stop stop-color="#017298"/>
<stop offset="1" stop-color="#002848"/>
</linearGradient>
</defs>
</svg>
