<svg width="19" height="19" viewBox="0 0 19 19" fill="none" xmlns="http://www.w3.org/2000/svg">
<path d="M9.25 0.25C7.46997 0.25 5.72991 0.777841 4.24987 1.76677C2.76983 2.75571 1.61628 4.16131 0.935088 5.80585C0.2539 7.45038 0.0756696 9.25998 0.422936 11.0058C0.770203 12.7516 1.62737 14.3553 2.88604 15.614C4.14471 16.8726 5.74836 17.7298 7.49419 18.0771C9.24002 18.4243 11.0496 18.2461 12.6942 17.5649C14.3387 16.8837 15.7443 15.7302 16.7332 14.2501C17.7222 12.7701 18.25 11.03 18.25 9.25C18.2475 6.86382 17.2985 4.5761 15.6112 2.88882C13.9239 1.20154 11.6362 0.25252 9.25 0.25ZM9.25 16.8654C7.74382 16.8654 6.27146 16.4187 5.01912 15.582C3.76678 14.7452 2.7907 13.5558 2.21431 12.1643C1.63792 10.7727 1.48711 9.24155 1.78095 7.76431C2.07479 6.28707 2.80008 4.93014 3.86511 3.86511C4.93014 2.80008 6.28708 2.07478 7.76431 1.78094C9.24155 1.4871 10.7728 1.63791 12.1643 2.2143C13.5558 2.79069 14.7452 3.76677 15.582 5.01912C16.4188 6.27146 16.8654 7.74382 16.8654 9.25C16.8631 11.269 16.06 13.2047 14.6324 14.6324C13.2047 16.06 11.269 16.8631 9.25 16.8654ZM10.6346 13.4038C10.6346 13.5875 10.5617 13.7635 10.4318 13.8934C10.302 14.0232 10.1259 14.0962 9.94231 14.0962C9.57509 14.0962 9.2229 13.9503 8.96324 13.6906C8.70357 13.4309 8.55769 13.0788 8.55769 12.7115V9.25C8.37408 9.25 8.19799 9.17706 8.06816 9.04723C7.93833 8.91739 7.86539 8.7413 7.86539 8.55769C7.86539 8.37408 7.93833 8.19799 8.06816 8.06816C8.19799 7.93832 8.37408 7.86538 8.55769 7.86538C8.92492 7.86538 9.2771 8.01126 9.53677 8.27093C9.79643 8.53059 9.94231 8.88278 9.94231 9.25V12.7115C10.1259 12.7115 10.302 12.7845 10.4318 12.9143C10.5617 13.0441 10.6346 13.2202 10.6346 13.4038ZM7.86539 5.44231C7.86539 5.23692 7.92629 5.03614 8.0404 4.86537C8.15451 4.69459 8.31669 4.56149 8.50645 4.48289C8.6962 4.40429 8.905 4.38373 9.10644 4.4238C9.30788 4.46387 9.49292 4.56277 9.63815 4.708C9.78338 4.85323 9.88229 5.03827 9.92236 5.23971C9.96243 5.44115 9.94186 5.64995 9.86326 5.83971C9.78466 6.02946 9.65156 6.19165 9.48079 6.30576C9.31001 6.41986 9.10924 6.48077 8.90385 6.48077C8.62843 6.48077 8.36429 6.37136 8.16955 6.17661C7.9748 5.98186 7.86539 5.71772 7.86539 5.44231Z" fill="#00BCFF" stroke="#00BCFF" stroke-width="0.5"/>
</svg>
